<?xml version="1.0" encoding="iso-8859-1"?>
<!-- Generator: Adobe Illustrator 19.0.0, SVG Export Plug-In . SVG Version: 6.00 Build 0)  -->
<svg version="1.1" id="Layer_1" xmlns="http://www.w3.org/2000/svg" xmlns:xlink="http://www.w3.org/1999/xlink" x="0px" y="0px"
	 viewBox="0 0 512 512" style="enable-background:new 0 0 512 512;" xml:space="preserve">
<path style="fill:#5C6670;" d="M254.624,108.436c-4.536,0-8.214-3.677-8.214-8.214V8.214c0-4.537,3.678-8.214,8.214-8.214
	s8.214,3.677,8.214,8.214v92.008C262.838,104.758,259.161,108.436,254.624,108.436z"/>
<path style="fill:#C3C6C8;" d="M273.492,75.217h-34.985c-9.067,0-16.99,6.147-19.212,14.937
	C176.335,260.055,117.601,431.483,80.503,476.001h56.145c5.283-10.174,11.176-22.268,17.465-35.877
	c18.352-39.716,58.137-65.132,101.887-65.132l0,0c43.751,0,83.535,25.416,101.887,65.132c6.289,13.608,12.181,25.703,17.465,35.877
	h56.145c-37.098-44.518-95.832-215.946-138.793-385.846C290.482,81.365,282.559,75.217,273.492,75.217z M193.948,345.929
	c15.777-40.423,31.438-84.433,44.543-127.652c5.239-17.28,29.778-17.28,35.018,0c13.105,43.218,28.766,87.228,44.543,127.652
	H193.948z"/>
<path style="opacity:0.1;enable-background:new    ;" d="M153.142,370.721h226.174c-4.724-12.218-9.512-25.153-14.329-38.696h-52.3
	c1.784,4.675,3.574,9.316,5.365,13.906H193.948c1.791-4.589,3.58-9.23,5.365-13.906h-31.555
	c9.828-27.163,19.955-57.346,30.041-89.441h33.086c2.614-8.111,5.155-16.222,7.606-24.307c5.239-17.28,29.778-17.28,35.018,0
	c2.451,8.084,4.992,16.196,7.606,24.307h0.009c-0.002,0.002-0.004,0.003-0.007,0.005c8.719,27.05,18.255,54.089,28.015,80.054
	h16.251c-9.999-25.618-19.948-52.676-29.233-80.06h39.264c-3.92-12.681-7.812-25.6-11.657-38.696H209.662
	c12.37-41.346,24.47-84.935,35.651-128.669h-6.804c-9.067,0-16.99,6.147-19.212,14.937
	C176.335,260.055,117.601,431.483,80.503,476.001h56.145c3.589-6.912,7.465-14.729,11.55-23.286h-29.02
	c-2.535,0-4.075-2.811-2.685-4.933C127.065,431.646,139.619,404.863,153.142,370.721z"/>
<g>
	<path style="fill:#5C6670;" d="M148.995,512H72.672c-6.854,0-12.41-5.556-12.41-12.41v-21.974c0-6.854,5.556-12.41,12.41-12.41
		h76.323c6.854,0,12.41,5.556,12.41,12.41v21.974C161.404,506.444,155.848,512,148.995,512z"/>
	<path style="fill:#5C6670;" d="M363.005,512h76.322c6.854,0,12.41-5.556,12.41-12.41v-21.974c0-6.854-5.556-12.41-12.41-12.41
		h-76.322c-6.854,0-12.41,5.556-12.41,12.41v21.974C350.596,506.444,356.152,512,363.005,512z"/>
	<path style="fill:#5C6670;" d="M377.338,354.924H134.654c-6.924,0-12.536-5.613-12.536-12.536v-33.098
		c0-6.924,5.613-12.536,12.536-12.536h242.684c6.924,0,12.536,5.613,12.536,12.536v33.098
		C389.874,349.312,384.261,354.924,377.338,354.924z"/>
</g>
<path style="opacity:0.2;enable-background:new    ;" d="M192.809,296.754l-16.994,17.348l-16.994-17.348h-22.996l28.492,29.085
	l-28.491,29.085h22.996l16.994-17.348l16.994,17.348h22.996l-28.491-29.085l28.491-29.085H192.809z M376.167,296.754h-22.996
	l-16.994,17.348l-16.994-17.348h-22.996l28.492,29.085l-28.491,29.085h22.996l16.994-17.348l16.994,17.348h22.996l-28.491-29.085
	L376.167,296.754z M272.99,296.754l-16.994,17.348l-16.994-17.348h-22.996l28.491,29.085l-28.491,29.085h22.996l16.994-17.348
	l16.994,17.348h22.996l-28.491-29.085l28.492-29.085H272.99z"/>
<path style="fill:#5C6670;" d="M337.353,229.211H174.639c-6.924,0-12.536-5.613-12.536-12.536v-33.098
	c0-6.924,5.613-12.536,12.536-12.536h162.713c6.924,0,12.536,5.613,12.536,12.536v33.098
	C349.888,223.598,344.275,229.211,337.353,229.211z"/>
<g style="opacity:0.2;">
	<path d="M255.899,171.04h-22.996l-16.994,17.348l-16.994-17.348H175.92l28.491,29.085L175.92,229.21h22.996l16.994-17.348
		l16.994,17.348h22.996l-28.491-29.085L255.899,171.04z M307.588,200.125l28.491-29.085h-22.996l-16.994,17.348l-16.994-17.348
		H256.1l28.491,29.085L256.1,229.21h22.996l16.994-17.348l16.994,17.348h22.996L307.588,200.125z"/>
</g>
<path style="opacity:0.1;enable-background:new    ;" d="M347.884,218.876H185.171c-6.924,0-12.536-5.613-12.536-12.536v-33.098
	c0-0.702,0.072-1.385,0.183-2.056c-6.057,0.885-10.714,6.086-10.714,12.389v33.098c0,6.924,5.613,12.536,12.536,12.536h162.713
	c6.222,0,11.37-4.537,12.353-10.481C349.11,218.816,348.504,218.876,347.884,218.876z"/>
<path style="opacity:0.1;enable-background:new    ;" d="M148.362,344.52c-6.924,0-12.536-5.613-12.536-12.536v-33.098
	c0-0.728,0.076-1.438,0.195-2.131h-1.366c-6.924,0-12.536,5.613-12.536,12.536v33.098c0,6.924,5.613,12.536,12.536,12.536h242.684
	c6.195,0,11.328-4.498,12.342-10.404H148.362z"/>
<g>
</g>
<g>
</g>
<g>
</g>
<g>
</g>
<g>
</g>
<g>
</g>
<g>
</g>
<g>
</g>
<g>
</g>
<g>
</g>
<g>
</g>
<g>
</g>
<g>
</g>
<g>
</g>
<g>
</g>
</svg>
